<?xml version="1.0" encoding="UTF-8" ?>
<!DOCTYPE svg PUBLIC "-//W3C//DTD SVG 1.1//EN" "http://www.w3.org/Graphics/SVG/1.1/DTD/svg11.dtd">
<svg width="1024pt" height="1024pt" viewBox="0 0 1024 1024" version="1.1" xmlns="http://www.w3.org/2000/svg">
<g id="#c820fdff">
<path fill="#c820fd" opacity="1.00" d=" M 510.90 208.82 C 511.82 208.29 512.95 208.48 513.81 209.06 C 524.07 214.64 534.53 219.83 544.97 225.05 C 583.93 245.21 623.15 264.85 662.09 285.04 C 675.09 291.42 687.92 298.14 700.77 304.84 C 711.62 309.90 722.18 315.54 732.74 321.16 C 742.10 325.69 751.36 330.44 760.52 335.35 C 760.51 390.39 760.61 445.42 760.45 500.46 C 750.50 500.45 740.55 500.40 730.60 500.42 C 730.47 456.98 730.66 413.53 730.53 370.09 C 720.88 373.80 711.99 379.28 702.68 383.77 C 691.97 389.01 681.31 394.35 670.80 399.97 C 669.26 401.29 667.18 401.56 665.43 402.48 C 619.57 425.89 573.42 448.74 527.64 472.29 C 525.44 475.59 527.83 479.49 526.96 483.04 C 526.42 486.02 526.71 489.06 527.00 492.05 C 526.41 503.01 526.82 514.03 526.72 525.02 C 527.81 533.41 527.02 541.85 526.60 550.25 C 526.91 550.71 527.53 551.63 527.83 552.09 C 541.43 558.37 554.45 565.79 568.00 572.15 C 584.39 580.85 601.19 588.73 617.61 597.38 C 633.53 605.57 649.69 613.26 665.55 621.58 C 671.63 624.80 678.14 627.28 683.89 631.10 C 683.55 633.88 681.76 636.14 680.55 638.58 C 676.98 644.88 674.17 651.59 670.44 657.80 C 626.34 634.95 581.77 613.00 537.53 590.41 C 534.20 588.77 531.08 586.50 527.32 586.01 C 527.22 648.33 527.27 710.66 527.30 772.99 C 528.20 772.76 530.00 772.31 530.91 772.08 C 573.06 750.55 614.97 728.56 657.18 707.14 C 661.02 715.10 665.02 722.99 668.95 730.91 C 669.64 732.17 669.66 733.64 669.66 735.07 C 659.22 739.32 649.35 744.93 639.35 750.13 C 597.18 771.83 555.00 793.50 512.95 815.42 C 511.46 816.10 510.11 814.82 508.83 814.28 C 494.73 806.44 480.12 799.57 465.97 791.84 C 410.69 763.45 355.59 734.71 300.25 706.44 C 288.16 699.81 275.63 694.03 263.47 687.53 C 263.60 632.57 263.27 577.60 263.62 522.64 C 273.57 522.90 283.58 522.07 293.47 523.26 C 293.70 566.80 293.38 610.35 293.59 653.90 C 299.78 651.64 305.52 648.34 311.39 645.39 C 351.30 625.10 391.30 605.00 431.22 584.73 C 444.59 578.48 457.41 571.17 470.75 564.87 C 479.47 560.03 488.57 555.93 497.35 551.22 C 497.12 527.16 497.61 502.99 496.87 479.04 C 497.26 477.25 497.37 475.42 497.48 473.61 C 496.57 472.43 495.44 471.46 494.07 470.89 C 485.28 466.72 476.61 462.32 468.05 457.69 C 452.72 450.46 437.91 442.21 422.63 434.90 C 403.53 424.98 384.13 415.67 365.00 405.81 C 356.74 401.36 348.25 397.36 339.94 393.01 C 340.34 391.65 340.71 390.28 341.34 389.02 C 345.20 381.43 349.20 373.91 352.89 366.24 C 364.95 371.50 376.41 378.06 388.25 383.81 C 423.36 401.77 458.72 419.23 493.79 437.25 C 494.89 437.79 496.17 437.54 497.36 437.59 C 497.20 393.37 497.36 349.14 497.28 304.92 C 497.12 304.44 496.81 303.48 496.65 303.01 C 497.64 301.53 497.22 299.66 497.32 298.01 C 497.16 287.00 497.45 275.99 497.19 264.99 C 496.51 263.36 496.80 261.66 497.19 260.02 C 496.53 257.07 496.68 254.04 496.71 251.04 C 495.49 251.31 494.22 251.44 493.08 251.98 C 483.89 256.68 474.54 261.07 465.52 266.11 C 436.83 280.43 408.31 295.12 379.76 309.71 C 377.65 310.69 375.38 312.39 372.99 311.29 C 371.17 305.28 367.49 300.06 364.86 294.40 C 363.56 291.32 360.80 288.46 361.48 284.90 C 375.96 278.60 389.52 270.36 403.80 263.61 C 439.46 245.26 475.24 227.17 510.90 208.82 M 527.27 267.98 C 526.51 274.28 526.43 280.68 527.05 287.00 C 526.48 295.34 526.54 303.75 527.08 312.09 C 526.97 314.69 525.90 317.61 527.41 320.00 C 526.27 321.40 526.80 323.32 526.68 324.97 C 526.88 333.02 526.45 341.09 526.87 349.12 C 528.09 353.42 526.06 357.72 526.91 362.03 C 527.40 365.00 527.28 368.02 527.30 371.01 C 527.49 374.37 526.05 377.70 527.18 381.00 C 526.39 384.59 526.77 388.27 526.71 391.92 C 526.66 407.14 526.80 422.37 526.61 437.59 C 528.30 437.77 530.04 437.67 531.50 436.69 C 544.33 429.63 557.68 423.59 570.58 416.67 C 590.12 407.30 609.12 396.87 628.66 387.52 C 647.02 377.69 665.85 368.78 684.29 359.09 C 693.62 354.84 702.45 349.59 711.74 345.26 C 711.67 344.91 711.55 344.21 711.48 343.86 C 695.60 336.41 680.28 327.83 664.50 320.18 C 618.95 296.54 573.08 273.54 527.48 250.02 C 527.12 256.00 527.42 261.99 527.27 267.98 M 492.66 587.16 C 461.36 603.39 429.65 618.84 398.35 635.09 C 387.72 640.02 377.44 645.65 366.99 650.95 C 357.01 655.67 347.28 660.87 337.47 665.92 C 329.72 669.75 321.85 673.42 314.32 677.67 C 314.31 678.28 314.30 679.50 314.29 680.11 C 321.74 683.00 328.58 687.27 335.77 690.75 C 355.79 701.22 376.10 711.15 395.96 721.93 C 414.29 730.86 432.13 740.76 450.39 749.83 C 465.73 757.98 481.34 765.65 496.54 774.06 C 496.64 770.01 497.57 766.03 497.31 761.97 C 497.35 703.44 497.20 644.90 497.38 586.36 C 495.76 586.27 494.07 586.25 492.66 587.16 Z" />
<path fill="#c820fd" opacity="1.00" d=" M 287.57 279.53 C 296.97 276.64 306.88 277.90 316.55 277.47 C 317.70 280.18 317.24 283.16 317.30 286.02 C 317.22 289.68 317.58 293.37 316.86 296.99 C 317.55 300.50 317.57 304.16 316.64 307.64 C 310.66 307.88 304.41 306.74 298.64 308.73 C 293.99 310.31 291.61 315.34 291.56 319.98 C 291.36 333.32 291.72 346.67 291.42 360.00 C 290.38 368.14 288.46 376.54 283.31 383.14 C 280.33 387.11 276.22 389.99 272.23 392.85 L 272.30 394.36 C 278.20 398.77 284.05 403.82 286.99 410.76 C 293.28 424.32 291.21 439.54 291.50 454.00 C 291.23 458.60 292.16 463.98 296.52 466.48 C 302.59 469.97 309.98 467.75 316.63 468.49 C 317.17 473.66 317.72 478.88 316.97 484.07 C 316.95 488.65 318.02 493.45 316.86 497.94 L 316.29 498.31 C 303.87 498.23 290.33 499.65 279.26 492.80 C 267.57 486.47 260.92 473.06 261.41 459.98 C 260.99 449.17 262.09 438.25 260.73 427.52 C 260.06 419.28 253.93 412.21 246.15 409.76 C 242.48 408.03 238.32 408.78 234.54 407.56 C 234.72 398.28 234.58 389.00 234.60 379.72 C 237.64 378.65 240.88 378.75 244.04 378.34 C 251.35 376.70 258.12 371.20 260.04 363.78 C 260.56 360.90 261.22 358.01 261.35 355.08 C 261.40 342.03 261.32 328.99 261.43 315.94 C 261.36 312.23 262.03 308.59 262.80 304.98 C 265.59 292.83 275.45 282.59 287.57 279.53 Z" />
<path fill="#c820fd" opacity="1.00" d=" M 707.22 534.34 C 709.15 533.97 711.12 533.52 713.10 533.89 C 718.92 534.67 724.80 533.94 730.65 534.43 C 739.86 535.57 748.77 540.03 754.63 547.33 C 759.19 553.02 761.69 560.18 762.50 567.37 C 762.86 578.25 762.50 589.13 762.67 600.01 C 763.37 605.30 763.87 611.15 767.84 615.17 C 771.40 619.45 776.65 621.86 782.04 622.89 C 784.37 623.85 787.51 622.69 789.34 624.60 C 789.46 633.84 789.34 643.10 789.34 652.35 C 782.07 652.93 774.10 654.30 768.88 659.89 C 763.38 665.35 762.66 673.71 762.65 681.04 C 762.64 690.47 762.77 699.91 762.51 709.34 C 761.68 720.63 756.09 732.04 746.13 737.96 C 741.63 741.08 736.23 742.15 730.98 743.20 C 723.10 743.96 715.18 743.46 707.28 743.61 C 707.32 733.67 707.36 723.72 707.31 713.78 C 712.92 713.58 718.55 713.90 724.15 713.35 C 728.59 711.77 732.45 707.85 732.50 702.91 C 732.88 692.26 732.27 681.59 732.79 670.94 C 734.02 663.43 735.57 655.66 740.27 649.45 C 743.56 644.66 748.38 641.29 753.09 638.05 C 748.02 634.94 743.42 630.97 739.88 626.18 C 735.21 619.38 733.52 611.09 732.62 603.03 C 732.42 593.67 732.79 584.31 732.47 574.96 C 732.36 570.00 728.67 565.24 723.70 564.44 C 718.25 563.85 712.73 564.73 707.31 563.90 C 707.37 554.05 707.41 544.19 707.22 534.34 Z" />
</g>
<g id="#1c093aff">
<path fill="#1c093a" opacity="1.00" d=" M 100.53 0.00 L 924.54 0.00 C 940.98 1.47 957.30 5.94 971.48 14.56 C 1002.23 32.15 1022.39 66.09 1024.00 101.39 L 1024.00 924.53 C 1022.63 943.71 1016.35 962.62 1005.24 978.37 C 995.82 992.10 983.03 1003.46 968.35 1011.30 C 954.69 1018.99 939.20 1022.81 923.66 1024.00 L 100.45 1024.00 C 84.88 1022.81 69.37 1019.04 55.70 1011.32 C 38.95 1002.18 24.60 988.59 14.83 972.18 C 5.71 957.22 1.14 939.93 0.00 922.54 L 0.00 101.42 C 0.78 93.22 1.73 84.98 4.12 77.08 C 11.40 51.01 29.25 28.13 52.64 14.56 C 67.10 5.83 83.77 1.32 100.53 0.00 M 510.90 208.82 C 475.24 227.17 439.46 245.26 403.80 263.61 C 389.52 270.36 375.96 278.60 361.48 284.90 C 360.80 288.46 363.56 291.32 364.86 294.40 C 367.49 300.06 371.17 305.28 372.99 311.29 C 375.38 312.39 377.65 310.69 379.76 309.71 C 408.31 295.12 436.83 280.43 465.52 266.11 C 474.54 261.07 483.89 256.68 493.08 251.98 C 494.22 251.44 495.49 251.31 496.71 251.04 C 496.68 254.04 496.53 257.07 497.19 260.02 C 496.80 261.66 496.51 263.36 497.19 264.99 C 497.45 275.99 497.16 287.00 497.32 298.01 C 497.22 299.66 497.64 301.53 496.65 303.01 C 496.81 303.48 497.12 304.44 497.28 304.92 C 497.36 349.14 497.20 393.37 497.36 437.59 C 496.17 437.54 494.89 437.79 493.79 437.25 C 458.72 419.23 423.36 401.77 388.25 383.81 C 376.41 378.06 364.95 371.50 352.89 366.24 C 349.20 373.91 345.20 381.43 341.34 389.02 C 340.71 390.28 340.34 391.65 339.94 393.01 C 348.25 397.36 356.74 401.36 365.00 405.81 C 384.13 415.67 403.53 424.98 422.63 434.90 C 437.91 442.21 452.72 450.46 468.05 457.69 C 476.61 462.32 485.28 466.72 494.07 470.89 C 495.44 471.46 496.57 472.43 497.48 473.61 C 497.37 475.42 497.26 477.25 496.87 479.04 C 497.61 502.99 497.12 527.16 497.35 551.22 C 488.57 555.93 479.47 560.03 470.75 564.87 C 457.41 571.17 444.59 578.48 431.22 584.73 C 391.30 605.00 351.30 625.10 311.39 645.39 C 305.52 648.34 299.78 651.64 293.59 653.90 C 293.38 610.35 293.70 566.80 293.47 523.26 C 283.58 522.07 273.57 522.90 263.62 522.64 C 263.27 577.60 263.60 632.57 263.47 687.53 C 275.63 694.03 288.16 699.81 300.25 706.44 C 355.59 734.71 410.69 763.45 465.97 791.84 C 480.12 799.57 494.73 806.44 508.83 814.28 C 510.11 814.82 511.46 816.10 512.95 815.42 C 555.00 793.50 597.18 771.83 639.35 750.13 C 649.35 744.93 659.22 739.32 669.66 735.07 C 669.66 733.64 669.64 732.17 668.95 730.91 C 665.02 722.99 661.02 715.10 657.18 707.14 C 614.97 728.56 573.06 750.55 530.91 772.08 C 530.00 772.31 528.20 772.76 527.30 772.99 C 527.27 710.66 527.22 648.33 527.32 586.01 C 531.08 586.50 534.20 588.77 537.53 590.41 C 581.77 613.00 626.34 634.95 670.44 657.80 C 674.17 651.59 676.98 644.88 680.55 638.58 C 681.76 636.14 683.55 633.88 683.89 631.10 C 678.14 627.28 671.63 624.80 665.55 621.58 C 649.69 613.26 633.53 605.57 617.61 597.38 C 601.19 588.73 584.39 580.85 568.00 572.15 C 554.45 565.79 541.43 558.37 527.83 552.09 C 527.53 551.63 526.91 550.71 526.60 550.25 C 527.02 541.85 527.81 533.41 526.72 525.02 C 526.82 514.03 526.41 503.01 527.00 492.05 C 526.71 489.06 526.42 486.02 526.96 483.04 C 527.83 479.49 525.44 475.59 527.64 472.29 C 573.42 448.74 619.57 425.89 665.43 402.48 C 667.18 401.56 669.26 401.29 670.80 399.97 C 681.31 394.35 691.97 389.01 702.68 383.77 C 711.99 379.28 720.88 373.80 730.53 370.09 C 730.66 413.53 730.47 456.98 730.60 500.42 C 740.55 500.40 750.50 500.45 760.45 500.46 C 760.61 445.42 760.51 390.39 760.52 335.35 C 751.36 330.44 742.10 325.69 732.74 321.16 C 722.18 315.54 711.62 309.90 700.77 304.84 C 687.92 298.14 675.09 291.42 662.09 285.04 C 623.15 264.85 583.93 245.21 544.97 225.05 C 534.53 219.83 524.07 214.64 513.81 209.06 C 512.95 208.48 511.82 208.29 510.90 208.82 M 287.57 279.53 C 275.45 282.59 265.59 292.83 262.80 304.98 C 262.03 308.59 261.36 312.23 261.43 315.94 C 261.32 328.99 261.40 342.03 261.35 355.08 C 261.22 358.01 260.56 360.90 260.04 363.78 C 258.12 371.20 251.35 376.70 244.04 378.34 C 240.88 378.75 237.64 378.65 234.60 379.72 C 234.58 389.00 234.72 398.28 234.54 407.56 C 238.32 408.78 242.48 408.03 246.15 409.76 C 253.93 412.21 260.06 419.28 260.73 427.52 C 262.09 438.25 260.99 449.17 261.41 459.98 C 260.92 473.06 267.57 486.47 279.26 492.80 C 290.33 499.65 303.87 498.23 316.29 498.31 L 316.86 497.94 C 318.02 493.45 316.95 488.65 316.97 484.07 C 317.72 478.88 317.17 473.66 316.63 468.49 C 309.98 467.75 302.59 469.97 296.52 466.48 C 292.16 463.98 291.23 458.60 291.50 454.00 C 291.21 439.54 293.28 424.32 286.99 410.76 C 284.05 403.82 278.20 398.77 272.30 394.36 L 272.23 392.85 C 276.22 389.99 280.33 387.11 283.31 383.14 C 288.46 376.54 290.38 368.14 291.42 360.00 C 291.72 346.67 291.36 333.32 291.56 319.98 C 291.61 315.34 293.99 310.31 298.64 308.73 C 304.41 306.74 310.66 307.88 316.64 307.64 C 317.57 304.16 317.55 300.50 316.86 296.99 C 317.58 293.37 317.22 289.68 317.30 286.02 C 317.24 283.16 317.70 280.18 316.55 277.47 C 306.88 277.90 296.97 276.64 287.57 279.53 M 707.22 534.34 C 707.41 544.19 707.37 554.05 707.31 563.90 C 712.73 564.73 718.25 563.85 723.70 564.44 C 728.67 565.24 732.36 570.00 732.47 574.96 C 732.79 584.31 732.42 593.67 732.62 603.03 C 733.52 611.09 735.21 619.38 739.88 626.18 C 743.42 630.97 748.02 634.94 753.09 638.05 C 748.38 641.29 743.56 644.66 740.27 649.45 C 735.57 655.66 734.02 663.43 732.79 670.94 C 732.27 681.59 732.88 692.26 732.50 702.91 C 732.45 707.85 728.59 711.77 724.15 713.35 C 718.55 713.90 712.92 713.58 707.31 713.78 C 707.36 723.72 707.32 733.67 707.28 743.61 C 715.18 743.46 723.10 743.96 730.98 743.20 C 736.23 742.15 741.63 741.08 746.13 737.96 C 756.09 732.04 761.68 720.63 762.51 709.34 C 762.77 699.91 762.64 690.47 762.65 681.04 C 762.66 673.71 763.38 665.35 768.88 659.89 C 774.10 654.30 782.07 652.93 789.34 652.35 C 789.34 643.10 789.46 633.84 789.34 624.60 C 787.51 622.69 784.37 623.85 782.04 622.89 C 776.65 621.86 771.40 619.45 767.84 615.17 C 763.87 611.15 763.37 605.30 762.67 600.01 C 762.50 589.13 762.86 578.25 762.50 567.37 C 761.69 560.18 759.19 553.02 754.63 547.33 C 748.77 540.03 739.86 535.57 730.65 534.43 C 724.80 533.94 718.92 534.67 713.10 533.89 C 711.12 533.52 709.15 533.97 707.22 534.34 Z" />
<path fill="#1c093a" opacity="1.00" d=" M 527.27 267.98 C 527.42 261.99 527.12 256.00 527.48 250.02 C 573.08 273.54 618.95 296.54 664.50 320.18 C 680.28 327.83 695.60 336.41 711.48 343.86 C 711.55 344.21 711.67 344.91 711.74 345.26 C 702.45 349.59 693.62 354.84 684.29 359.09 C 665.85 368.78 647.02 377.69 628.66 387.52 C 609.12 396.87 590.12 407.30 570.58 416.67 C 557.68 423.59 544.33 429.63 531.50 436.69 C 530.04 437.67 528.30 437.77 526.61 437.59 C 526.80 422.37 526.66 407.14 526.71 391.92 C 526.77 388.27 526.39 384.59 527.18 381.00 C 526.05 377.70 527.49 374.37 527.30 371.01 C 527.28 368.02 527.40 365.00 526.91 362.03 C 526.06 357.72 528.09 353.42 526.87 349.12 C 526.45 341.09 526.88 333.02 526.68 324.97 C 526.80 323.32 526.27 321.40 527.41 320.00 C 525.90 317.61 526.97 314.69 527.08 312.09 C 526.54 303.75 526.48 295.34 527.05 287.00 C 526.43 280.68 526.51 274.28 527.27 267.98 Z" />
<path fill="#1c093a" opacity="1.00" d=" M 492.66 587.16 C 494.07 586.25 495.76 586.27 497.38 586.36 C 497.20 644.90 497.35 703.44 497.31 761.97 C 497.57 766.03 496.64 770.01 496.54 774.06 C 481.34 765.65 465.73 757.98 450.39 749.83 C 432.13 740.76 414.29 730.86 395.96 721.93 C 376.10 711.15 355.79 701.22 335.77 690.75 C 328.58 687.27 321.74 683.00 314.29 680.11 C 314.30 679.50 314.31 678.28 314.32 677.67 C 321.85 673.42 329.72 669.75 337.47 665.92 C 347.28 660.87 357.01 655.67 366.99 650.95 C 377.44 645.65 387.72 640.02 398.35 635.09 C 429.65 618.84 461.36 603.39 492.66 587.16 Z" />
</g>
</svg>
